<?xml version="1.0" encoding="UTF-8" standalone="no"?>
<!-- Created with Inkscape (http://www.inkscape.org/) -->

<svg
   xmlns:dc="http://purl.org/dc/elements/1.1/"
   xmlns:cc="http://creativecommons.org/ns#"
   xmlns:rdf="http://www.w3.org/1999/02/22-rdf-syntax-ns#"
   xmlns:svg="http://www.w3.org/2000/svg"
   xmlns="http://www.w3.org/2000/svg"
   xmlns:sodipodi="http://sodipodi.sourceforge.net/DTD/sodipodi-0.dtd"
   xmlns:inkscape="http://www.inkscape.org/namespaces/inkscape"
   width="341.577mm"
   height="65.616997mm"
   viewBox="0 0 341.577 65.616997"
   version="1.1"
   id="svg8"
   inkscape:version="0.92.2 5c3e80d, 2017-08-06"
   sodipodi:docname="kdk-textsvg.svg">
  <defs
     id="defs2" />
  <sodipodi:namedview
     id="base"
     pagecolor="#688174"
     bordercolor="#666666"
     borderopacity="1.0"
     inkscape:pageopacity="0"
     inkscape:pageshadow="2"
     inkscape:zoom="0.7"
     inkscape:cx="835.80008"
     inkscape:cy="351.57653"
     inkscape:document-units="mm"
     inkscape:current-layer="g826"
     showgrid="false"
     inkscape:window-width="1918"
     inkscape:window-height="1038"
     inkscape:window-x="0"
     inkscape:window-y="20"
     inkscape:window-maximized="1" />
  <metadata
     id="metadata5">
    <rdf:RDF>
      <cc:Work
         rdf:about="">
        <dc:format>image/svg+xml</dc:format>
        <dc:type
           rdf:resource="http://purl.org/dc/dcmitype/StillImage" />
        <dc:title></dc:title>
      </cc:Work>
    </rdf:RDF>
  </metadata>
  <g
     inkscape:label="Layer 1"
     inkscape:groupmode="layer"
     id="layer1"
     transform="translate(0,-231.383)">
    <g
       transform="translate(216.14569,112.33452)">
      <path
         style="fill:#ffffff;fill-opacity:1;stroke:none;stroke-width:0.26458332;stroke-opacity:1"
         d="m -130.58591,123.74668 c -1.45273,0.012 -2.46984,0.089 -2.70423,0.21446 -0.57218,0.30623 -0.43474,-0.10748 -4.61057,13.85755 -1.51735,5.0744 -2.87638,9.34369 -3.01997,9.48728 -0.39657,0.39657 -0.5967,-0.12482 -2.81275,-7.33599 -3.6205,-11.78134 -4.65654,-14.91012 -5.11596,-15.44815 -0.40789,-0.47767 -0.83184,-0.53535 -4.41989,-0.60203 -2.18281,-0.0406 -4.09936,0.008 -4.25865,0.10697 -0.30579,0.19087 -0.43389,4.29276 -0.90124,28.7755 -0.26469,13.86609 -0.0716,23.48843 0.49299,24.5401 0.31132,0.57987 0.43129,0.59532 4.62298,0.59532 2.99432,0 4.39999,-0.0969 4.6209,-0.31781 0.23609,-0.23609 0.31982,-3.03472 0.32608,-10.91407 0.007,-8.92881 0.0643,-10.52287 0.3638,-10.12806 0.44683,0.58887 0.49692,0.91352 1.47847,9.58598 0.89453,7.90354 1.22442,9.9669 1.7663,11.04635 0.36444,0.72599 0.37171,0.72761 3.21014,0.72761 4.32082,0 4.17185,0.22928 5.07617,-7.80521 0.66729,-5.92865 1.54745,-12.4127 1.76062,-12.9682 0.083,-0.21634 0.24577,-0.39326 0.36122,-0.39326 0.11545,0 0.19189,4.59265 0.17001,10.2061 -0.0383,9.82171 -0.0203,10.22048 0.47388,10.58333 0.39456,0.28967 1.50598,0.37724 4.79609,0.37724 3.66393,0 4.33504,-0.0633 4.64571,-0.43822 0.2965,-0.35783 0.35474,-2.43312 0.31677,-11.31094 -0.074,-17.30384 -0.62934,-40.93237 -0.97978,-41.69668 -0.3003,-0.65496 -0.34027,-0.66212 -4.07417,-0.73483 -0.56809,-0.0111 -1.10067,-0.0143 -1.58492,-0.0104 z m 194.344728,0.0145 c -1.64854,-0.0283 -3.431064,0.29549 -5.29426,0.99271 -3.221037,1.20534 -5.874782,4.73286 -6.543781,8.69921 -0.189785,1.12509 -0.277653,3.76059 -0.223758,6.69933 l 0.08887,4.84467 0.835607,1.60093 c 1.201499,2.30202 2.435331,3.76447 7.160815,8.48889 2.410037,2.40947 4.401476,4.63437 4.675691,5.22294 0.649393,1.39382 0.53033,6.30306 -0.179335,7.38611 -0.640477,0.97749 -1.64248,1.1863 -2.53111,0.52762 -1.018752,-0.75517 -1.333923,-1.95781 -1.350804,-5.15163 -0.0082,-1.55488 -0.128111,-3.12408 -0.266144,-3.48712 l -0.25064,-0.65991 -4.048839,0.13746 c -2.226681,0.0757 -4.167399,0.25258 -4.31292,0.39274 -0.15531,0.14957 -0.25691,1.91519 -0.245983,4.27519 0.01614,3.45829 0.102288,4.2615 0.616003,5.74074 1.525799,4.39349 4.914476,7.49865 8.947255,8.19846 1.672352,0.2902 4.366499,0.0453 6.115897,-0.55604 2.858188,-0.9824 4.90384,-3.06675 6.176883,-6.29212 0.514033,-1.30242 0.598355,-2.09493 0.688843,-6.50968 0.09438,-4.60431 0.05622,-5.15169 -0.451644,-6.50606 -0.820552,-2.18833 -2.352013,-4.20419 -6.74325,-8.87543 -2.170404,-2.30879 -4.402825,-4.90107 -4.960938,-5.76037 l -1.014941,-1.56218 v -3.22668 c 0,-3.70627 0.266541,-4.74391 1.364774,-5.31182 1.039495,-0.53754 1.659149,-0.2921 2.247423,0.89091 0.418465,0.84153 0.477891,1.51767 0.413412,4.71289 -0.06252,3.09741 -0.0061,3.78767 0.331761,4.06797 0.284136,0.23582 1.565486,0.34736 4.251404,0.37052 3.148171,0.0271 3.893582,-0.0383 4.113451,-0.36329 0.168619,-0.24919 0.227965,-2.31678 0.159173,-5.55625 -0.09292,-4.37679 -0.192961,-5.3898 -0.658892,-6.67659 -1.560803,-4.31062 -4.89712,-6.68175 -9.110027,-6.75412 z m -236.889418,0.19121 c -1.79834,0.0249 -3.60807,0.15317 -3.78116,0.36173 -0.76935,0.92701 -2.97693,12.56585 -7.06675,37.26233 -1.41371,8.53675 -2.49776,15.71027 -2.40916,15.94114 0.13837,0.36061 0.79722,0.42013 4.6731,0.42013 4.42517,0 4.51701,-0.0115 4.77335,-0.59531 0.14375,-0.32743 0.59532,-2.61938 1.00356,-5.09323 l 0.74207,-4.49792 1.6366,-0.0791 c 1.95681,-0.0942 1.84808,-0.26518 2.66443,4.19923 0.30796,1.68416 0.77974,3.70821 1.048,4.49791 l 0.48731,1.43609 4.18837,0.0729 c 2.30351,0.0402 4.28063,-0.0193 4.39353,-0.13229 0.19755,-0.19768 -0.3457,-4.06475 -3.22409,-22.95932 -2.40243,-15.77021 -4.86819,-29.6872 -5.41776,-30.57643 -0.12634,-0.20442 -1.91306,-0.28275 -3.7114,-0.25786 z m 105.681407,0.0114 c -1.637829,0.005 -3.144335,0.11091 -3.349668,0.31625 -0.239347,0.23934 -0.317293,3.94624 -0.317293,15.05955 0,8.10816 0.07724,14.94346 0.171566,15.18925 0.152477,0.39735 0.585407,0.43498 3.902604,0.3421 3.496622,-0.0979 3.799933,-0.1483 4.827096,-0.80718 1.340485,-0.85986 2.078034,-1.86335 2.82825,-3.8468 0.54882,-1.45098 0.573609,-1.91723 0.573609,-10.90838 0,-9.29504 -0.0066,-9.4092 -0.634588,-10.9802 -0.77943,-1.94994 -2.408113,-3.66524 -3.864361,-4.06952 -0.730186,-0.20271 -2.499386,-0.29967 -4.137215,-0.29507 z m 94.882577,0.13177 c -2.168779,-0.002 -2.505467,0.25483 -2.780707,1.08882 -0.369078,1.11832 -0.709973,29.14806 -0.518832,42.65476 0.156165,11.03521 -0.185598,10.09932 3.688664,10.09706 2.768174,-0.002 4.261107,-0.30221 4.81521,-0.96945 0.286158,-0.34458 0.386618,-2.80951 0.491959,-12.10004 0.0857,-7.55865 0.225467,-11.65192 0.396875,-11.62306 0.344844,0.0581 1.007112,2.68854 3.441649,13.66738 1.102786,4.97316 2.175008,9.42589 2.382801,9.89501 0.511363,1.15448 1.693002,1.41364 5.684925,1.24747 2.106792,-0.0877 2.582989,-0.18943 2.944013,-0.62891 0.388303,-0.4727 0.45048,-3.07083 0.628888,-26.38185 0.128852,-16.83808 0.106892,-26.00125 -0.06252,-26.27023 -0.213598,-0.33913 -0.978138,-0.42629 -4.270539,-0.48627 l -4.010094,-0.0729 -0.283186,0.73432 c -0.195903,0.5085 -0.22397,4.14568 -0.09147,11.81944 0.198665,11.50551 0.116784,12.42419 -0.819589,9.21701 -0.535123,-1.83286 -2.364907,-9.86017 -3.692798,-16.20057 -0.533344,-2.54661 -1.141254,-4.82159 -1.351338,-5.0555 -0.299424,-0.33336 -1.10961,-0.45365 -3.748609,-0.55604 -1.195647,-0.0464 -2.122376,-0.0758 -2.845305,-0.0765 z m -143.844444,0.03 c -1.94563,0.005 -3.47353,0.0829 -3.64371,0.25218 -0.1989,0.19791 -0.28247,8.1828 -0.27853,26.59063 0.005,24.38169 0.0385,26.33217 0.45268,26.63868 0.55662,0.41197 7.01973,0.45928 7.77162,0.0568 0.49119,-0.26289 0.51184,-0.65395 0.51573,-9.72344 0.002,-5.19725 0.0915,-9.57439 0.19844,-9.72654 0.10691,-0.15215 1.10785,-0.40426 2.22467,-0.56069 3.71649,-0.52053 7.08058,-2.62193 8.3876,-5.23895 0.944811,-1.89181 1.143217,-4.3728 1.047483,-13.10205 l -0.08837,-8.07341 -0.743623,-1.51463 c -1.16772,-2.37795 -3.76673,-4.27664 -6.98045,-5.09995 -1.21703,-0.31179 -5.62083,-0.50675 -8.86354,-0.49868 z m 75.377308,0.0713 c -2.17311,0.0207 -4.056417,0.10258 -4.184758,0.1819 -0.258959,0.16005 -0.329301,29.45207 -0.07235,30.12167 0.12759,0.3325 0.587909,0.41858 2.239658,0.41858 1.784705,0 2.117712,-0.0728 2.352829,-0.51211 0.163737,-0.30594 0.273883,-2.7353 0.273883,-6.04098 0,-3.04125 0.06661,-5.59599 0.147796,-5.67717 0.337225,-0.33723 1.225222,0.18226 1.621605,0.94878 0.31464,0.60844 0.484846,2.09657 0.654225,5.7211 0.125907,2.6943 0.284543,5.05175 0.352949,5.23895 0.09246,0.25304 0.787656,0.32093 2.708878,0.26459 2.576753,-0.0756 2.584349,-0.0774 2.529562,-0.73691 -0.03022,-0.3638 -0.175234,-2.68551 -0.321945,-5.15937 -0.367107,-6.19025 -0.601313,-6.99997 -2.40347,-8.30544 -1.030978,-0.74684 -1.031687,-0.74887 -0.41031,-1.03198 0.342413,-0.15602 0.961998,-0.72892 1.377177,-1.27279 l 0.754991,-0.98857 0.08113,-5.20898 0.08113,-5.20847 -0.733803,-0.8723 c -1.344557,-1.59791 -2.563681,-1.92329 -7.049183,-1.8805 z m 47.9872511,0.0181 -4.7051409,0.0724 -4.7051383,0.0724 -0.076481,2.62671 c -0.041963,1.44485 -0.014631,2.78705 0.060463,2.98276 0.1086009,0.28301 1.0714646,0.34131 4.7061702,0.28371 l 4.5702643,-0.0724 0.07493,-2.98276 z m -97.3289411,0.005 c -3.281458,0.008 -5.970759,0.0603 -6.2513,0.16795 -0.377719,0.14494 -0.418579,2.70619 -0.418579,26.27333 0,20.53439 0.07065,26.18423 0.33073,26.44851 0.247927,0.25193 1.42372,0.31518 4.696354,0.25167 2.401093,-0.0466 4.514453,-0.18148 4.696354,-0.29921 0.253619,-0.16415 0.334023,-2.35406 0.345715,-9.39271 0.0084,-5.04826 0.09953,-9.6545 0.202573,-10.23658 l 0.187584,-1.05834 3.682463,-0.0739 c 2.163347,-0.0434 3.826039,-0.19338 4.030763,-0.36329 0.450943,-0.37425 0.499237,-8.7084 0.05529,-9.53792 -0.2823,-0.52748 -0.426636,-0.54059 -3.950147,-0.36173 -3.486396,0.17698 -3.670208,0.16107 -3.940329,-0.34365 -0.345456,-0.6455 -0.384254,-11.90155 -0.04289,-12.44058 0.177355,-0.28005 1.287049,-0.39752 4.692221,-0.4961 2.453002,-0.071 4.60902,-0.24802 4.790921,-0.39325 0.235937,-0.1884 0.33073,-1.31365 0.33073,-3.92638 0,-3.35018 -0.04346,-3.68565 -0.511596,-3.93619 -0.344213,-0.18422 -7.457766,-0.29488 -12.926859,-0.28164 z m -103.893918,0.008 c -2.91535,0 -4.12364,0.0925 -4.32067,0.33073 -0.24648,0.29807 -2.68332,9.27816 -3.50004,12.89844 -0.68572,3.03962 -0.79984,2.189 -0.72864,-5.42396 l 0.0718,-7.67292 h -4.10104 -4.10104 l -0.0672,26.29711 c -0.0493,19.21153 0.0126,26.39422 0.23048,26.65677 0.4536,0.54655 7.18503,0.51291 7.64242,-0.0382 h 5.3e-4 c 0.23379,-0.28171 0.3058,-1.30394 0.2465,-3.50573 -0.046,-1.70943 -0.0487,-5.13189 -0.006,-7.60574 0.0911,-5.24132 -0.122,-5.61566 2.39158,4.20078 0.88972,3.47467 1.73726,6.54053 1.88309,6.81302 0.24435,0.45657 0.64602,0.49558 5.12217,0.49558 3.90529,0 4.88506,-0.0725 4.99866,-0.36846 0.0777,-0.20251 -0.97148,-3.56603 -2.33112,-7.47447 -1.35964,-3.90847 -3.63997,-10.57166 -5.06739,-14.80737 l -2.59519,-7.70134 1.02887,-2.61741 c 1.39819,-3.55804 4.78379,-11.66669 6.59754,-15.8011 1.58199,-3.60616 1.7367,-4.25974 1.07022,-4.51549 -0.23018,-0.0883 -2.23951,-0.1602 -4.46537,-0.1602 z m 167.325702,0 -0.263549,0.69195 c -0.169695,0.44633 -0.237656,9.8438 -0.191719,26.46815 0.06237,22.57187 0.120647,25.80718 0.468188,26.02684 0.620699,0.3923 7.33348,0.32962 7.580934,-0.0708 0.112038,-0.18129 0.168077,-2.66703 0.125055,-5.52369 -0.04302,-2.85666 0.0091,-6.30965 0.115756,-7.67344 l 0.194304,-2.47943 1.953885,7.65586 c 1.07479,4.21092 2.083879,7.81232 2.24224,8.00313 0.217903,0.26256 1.440585,0.34727 5.0265675,0.34727 4.1568396,0 4.7588672,-0.0536 4.9056422,-0.43615 0.092022,-0.2398 -0.1400307,-1.34114 -0.5152125,-2.4474 -0.3751818,-1.10627 -2.5969013,-7.58533 -4.9376832,-14.39809 -2.340782,-6.81277 -4.256241,-12.64682 -4.256072,-12.96458 2.65e-4,-0.67957 3.766844,-10.09961 6.8853688,-17.22014 1.6652319,-3.80223 2.1262948,-5.10188 1.9233965,-5.42396 -0.2233375,-0.35452 -0.9612551,-0.43528 -4.5273723,-0.49609 -4.182452,-0.0713 -4.267722,-0.0616 -4.637958,0.52917 -0.207436,0.331 -1.176232,3.75719 -2.152841,7.61349 -0.976611,3.85631 -1.839957,7.07099 -1.918748,7.14375 -0.07879,0.0728 -0.06776,-3.20774 0.02479,-7.29 0.127018,-5.60169 0.09075,-7.49999 -0.14831,-7.73906 -0.216484,-0.21649 -1.516525,-0.31678 -4.106727,-0.31678 z m 43.007711,0 c -3.926443,0 -4.596201,0.0593 -4.734078,0.41858 -0.08833,0.23019 -0.160714,1.41101 -0.160714,2.62413 0,1.21312 0.07238,2.39395 0.160714,2.62413 0.137861,0.35926 0.806865,0.41858 4.726326,0.41858 h 4.566131 l 0.167947,-1.22783 c 0.213093,-1.55466 0.217276,-3.89314 0.0078,-4.43901 -0.137866,-0.35929 -0.807635,-0.41858 -4.734078,-0.41858 z m 70.991009,0 c -6.305576,0 -10.494142,0.10143 -10.794179,0.262 -0.269637,0.14431 -0.577903,0.65033 -0.684689,1.12448 -0.296862,1.31813 -0.164941,6.83149 0.173117,7.23884 0.205343,0.24741 1.180624,0.37572 3.244744,0.42788 l 2.951242,0.0749 0.193278,21.82812 c 0.178726,20.15242 0.228388,21.85352 0.645954,22.15886 0.549328,0.40168 8.170703,0.47139 8.414464,0.077 0.08623,-0.13951 0.150839,-9.97761 0.143669,-21.86224 -0.0095,-15.78563 0.06779,-21.70612 0.28784,-21.97126 0.221059,-0.26637 1.058677,-0.36277 3.147086,-0.36277 2.15826,0 2.921979,-0.0925 3.162591,-0.38241 0.462836,-0.55765 0.275008,-7.58331 -0.218572,-8.17676 -0.326072,-0.39204 -1.414171,-0.43667 -10.666545,-0.43667 z m -141.377927,0.0419 c -1.968741,0.006 -2.690696,0.0895 -2.813264,0.28267 -0.330063,0.52006 -0.276876,29.24005 0.05529,29.86071 0.262221,0.48996 0.546753,0.51397 5.357812,0.44597 l 5.080826,-0.0718 0.07648,-2.47427 c 0.04933,-1.59675 -0.03269,-2.60532 -0.230992,-2.84427 -0.223448,-0.26924 -0.986438,-0.37 -2.79673,-0.37 h -2.489253 l 0.07441,-3.24115 0.07441,-3.24115 1.968873,-0.13229 c 1.966373,-0.13213 1.968826,-0.13331 2.193147,-1.00355 0.123524,-0.4792 0.189958,-1.84843 0.147794,-3.04271 l -0.07648,-2.17145 -2.182812,-0.077 -2.182812,-0.077 v -3.15433 -3.15485 l 2.579687,-0.076 2.579687,-0.0754 v -2.64583 -2.64584 l -5.007961,-0.0723 c -0.957345,-0.0138 -1.751875,-0.0202 -2.408124,-0.0181 z m 167.748415,0.26975 c -1.12,-0.003 -2.4452,0.003 -3.9951,0.0155 l -8.69974,0.0698 -0.0729,25.92917 c -0.04,14.26104 -0.0101,26.18979 0.0672,26.50846 0.18265,0.75662 0.41768,0.77695 9.67023,0.83147 6.19043,0.0365 7.64535,-0.0243 8.09096,-0.33641 0.51874,-0.36333 0.5384,-0.57598 0.42995,-4.69636 -0.0932,-3.53984 -0.18918,-4.37495 -0.53483,-4.64623 -0.29525,-0.23169 -1.62986,-0.33073 -4.45659,-0.33073 -2.89004,0 -4.09143,-0.0917 -4.23436,-0.32297 -0.23733,-0.38401 -0.20394,-10.29741 0.0372,-11.05721 0.15547,-0.4898 0.40502,-0.52607 3.59669,-0.52607 2.50066,0 3.46424,-0.0896 3.55584,-0.33072 0.0691,-0.1819 0.1547,-2.53338 0.19018,-5.22553 l 0.0646,-4.89479 -3.70417,-0.16639 c -2.03729,-0.0914 -3.73618,-0.18069 -3.77547,-0.19844 -0.0393,-0.0178 -0.0393,-2.56212 0,-5.65444 l 0.0713,-5.62239 4.23333,-0.0703 c 3.59958,-0.0596 4.28284,-0.1366 4.56406,-0.51367 0.49062,-0.65787 0.46305,-8.10528 -0.0315,-8.51575 -0.19362,-0.16069 -1.70688,-0.23827 -5.06688,-0.24598 z m -153.585455,4.45089 h 0.78445 c 0.504764,0 0.882092,0.18229 1.058334,0.5116 0.347665,0.64962 0.357515,5.15263 0.01394,6.35052 -0.325723,1.13573 -1.142637,1.70111 -1.680517,1.16323 -0.09701,-0.097 -0.176218,-1.94248 -0.176218,-4.10104 z m -25.690938,0.28577 c 0.198361,-0.0194 0.474705,0.28679 0.860415,0.70642 1.250299,1.3603 1.321495,1.89071 1.232998,9.22269 l -0.08268,6.85075 -0.79375,1.5875 c -0.443473,0.88694 -0.998077,1.62498 -1.25677,1.67276 -0.434364,0.0803 -0.463021,-0.53794 -0.463021,-9.98802 0,-7.82856 -0.0041,-10.00252 0.502811,-10.0521 z m 68.0433926,3.15382 c -3.5818709,0 -4.219223,0.0607 -4.3563248,0.41806 -0.088331,0.23018 -0.1564878,8.3562 -0.1514105,18.05781 0.00992,18.96038 0.1062196,20.58621 1.35650552,22.84667 1.18925709,2.15013 3.68298938,3.46092 7.49773328,3.94084 2.0286848,0.25522 4.9012789,0.0666 6.6915819,-0.43925 3.206176,-0.90587 5.573379,-3.2615 6.734472,-6.70191 0.581043,-1.72169 0.58865,-1.95372 0.670245,-19.62516 0.07044,-15.25467 0.02711,-17.92952 -0.29559,-18.19734 -0.264708,-0.21969 -1.598996,-0.29203 -4.443656,-0.24081 l -4.065386,0.0734 -0.132292,16.66875 c -0.127005,16.00287 -0.153432,16.71039 -0.661458,17.71261 -0.960165,1.89418 -2.6740355,1.80923 -3.7646268,-0.18655 C 6.8359447,165.95788 6.809116,164.7879 6.882186,149.69862 6.9366716,138.44693 6.8732166,133.33513 6.6744457,132.96372 6.4057216,132.4616 6.1321081,132.42939 2.1925496,132.42939 Z m -113.2959296,0.25063 c 0.25409,0.0103 0.57076,0.0736 0.96584,0.13281 1.98031,0.29697 2.11272,0.77018 2.10891,7.55406 -0.004,6.69109 -0.18361,7.44241 -1.89394,7.91734 -1.3934,0.38692 -1.61531,0.36085 -1.93011,-0.22737 -0.16982,-0.31731 -0.27389,-3.28618 -0.27389,-7.81348 0,-6.65128 -0.0778,-7.60786 1.02319,-7.56336 z m -62.24994,19.41432 c 0.0102,-0.001 0.0191,0.002 0.0274,0.01 0.10271,0.1027 1.13153,6.5408 1.13689,7.1143 0.002,0.26632 -2.04816,0.25481 -2.2133,-0.0124 -0.13435,-0.21736 0.47594,-5.30892 0.78289,-6.5319 0.0834,-0.33223 0.19505,-0.57002 0.26614,-0.57982 z m 121.455631,6.5288 c -16.362709,0 -18.432989,0.0455 -18.802987,0.41548 -0.315386,0.31537 -0.415478,0.98189 -0.415478,2.75952 0,1.77764 0.100092,2.44361 0.415478,2.759 0.36999,0.36999 2.438519,0.416 18.785416,0.416 18.016868,0 18.380101,-0.0102 18.899105,-0.52917 0.450464,-0.45047 0.529167,-0.88196 0.529167,-2.90112 0,-2.07428 -0.06405,-2.40631 -0.511596,-2.64583 -0.338693,-0.18127 -6.730431,-0.27388 -18.899105,-0.27388 z"
         id="rect834"
         inkscape:connector-curvature="0"
         sodipodi:nodetypes="scscscccscscccscsccsccscscccssccccccccccccccccccsccccsccccccccsssscscccccccccscsscsccccsscscssccscscscsccccssscscsccccccccccccscccscsccsccsscccccccccscccccccsssscccccccccccccssssccccccccccccscscccccccscccccsccccsccscscccscccscsccsscccssccccccccccsccscccccccsccccsccccccccccccsccccccccsccsccccccccccscssccscccccccscscsccccscccsccscscccccsccsccscscscssscsscscs" />
    </g>
  </g>
</svg>
